<mxfile host="app.diagrams.net" modified="2021-11-11T05:45:46.002Z" agent="5.0 (Windows NT 10.0; Win64; x64) AppleWebKit/537.36 (KHTML, like Gecko) Chrome/95.0.4638.69 Safari/537.36" etag="9Zf7ecz-RJwtHeWE2n6f" version="15.7.0" type="github">
  <diagram id="R2lEEEUBdFMjLlhIrx00" name="Page-1">
    <mxGraphModel dx="868" dy="393" grid="1" gridSize="10" guides="1" tooltips="1" connect="1" arrows="1" fold="1" page="1" pageScale="1" pageWidth="850" pageHeight="1100" math="0" shadow="0" extFonts="Permanent Marker^https://fonts.googleapis.com/css?family=Permanent+Marker">
      <root>
        <mxCell id="0" />
        <mxCell id="1" parent="0" />
        <mxCell id="C-vyLk0tnHw3VtMMgP7b-1" value="" style="edgeStyle=entityRelationEdgeStyle;endArrow=ERzeroToMany;startArrow=ERone;endFill=1;startFill=0;exitX=1;exitY=0.5;exitDx=0;exitDy=0;entryX=-0.012;entryY=0.867;entryDx=0;entryDy=0;entryPerimeter=0;" parent="1" source="Y8PTiHZSludacNB3pOwr-104" target="Y8PTiHZSludacNB3pOwr-65" edge="1">
          <mxGeometry width="100" height="100" relative="1" as="geometry">
            <mxPoint x="340" y="720" as="sourcePoint" />
            <mxPoint x="490" y="255" as="targetPoint" />
          </mxGeometry>
        </mxCell>
        <mxCell id="C-vyLk0tnHw3VtMMgP7b-12" value="" style="edgeStyle=entityRelationEdgeStyle;endArrow=ERzeroToMany;startArrow=ERone;endFill=1;startFill=0;" parent="1" target="C-vyLk0tnHw3VtMMgP7b-17" edge="1">
          <mxGeometry width="100" height="100" relative="1" as="geometry">
            <mxPoint x="740" y="215" as="sourcePoint" />
            <mxPoint x="460" y="205" as="targetPoint" />
          </mxGeometry>
        </mxCell>
        <mxCell id="C-vyLk0tnHw3VtMMgP7b-13" value="Mentors" style="shape=table;startSize=30;container=1;collapsible=1;childLayout=tableLayout;fixedRows=1;rowLines=0;fontStyle=1;align=center;resizeLast=1;" parent="1" vertex="1">
          <mxGeometry x="490" y="370" width="250" height="120" as="geometry" />
        </mxCell>
        <mxCell id="C-vyLk0tnHw3VtMMgP7b-14" value="" style="shape=partialRectangle;collapsible=0;dropTarget=0;pointerEvents=0;fillColor=none;points=[[0,0.5],[1,0.5]];portConstraint=eastwest;top=0;left=0;right=0;bottom=1;" parent="C-vyLk0tnHw3VtMMgP7b-13" vertex="1">
          <mxGeometry y="30" width="250" height="30" as="geometry" />
        </mxCell>
        <mxCell id="C-vyLk0tnHw3VtMMgP7b-15" value="PK" style="shape=partialRectangle;overflow=hidden;connectable=0;fillColor=none;top=0;left=0;bottom=0;right=0;fontStyle=1;" parent="C-vyLk0tnHw3VtMMgP7b-14" vertex="1">
          <mxGeometry width="30" height="30" as="geometry">
            <mxRectangle width="30" height="30" as="alternateBounds" />
          </mxGeometry>
        </mxCell>
        <mxCell id="C-vyLk0tnHw3VtMMgP7b-16" value="mentor_idÂ int NOT NULL " style="shape=partialRectangle;overflow=hidden;connectable=0;fillColor=none;top=0;left=0;bottom=0;right=0;align=left;spacingLeft=6;fontStyle=5;" parent="C-vyLk0tnHw3VtMMgP7b-14" vertex="1">
          <mxGeometry x="30" width="220" height="30" as="geometry">
            <mxRectangle width="220" height="30" as="alternateBounds" />
          </mxGeometry>
        </mxCell>
        <mxCell id="C-vyLk0tnHw3VtMMgP7b-17" value="" style="shape=partialRectangle;collapsible=0;dropTarget=0;pointerEvents=0;fillColor=none;points=[[0,0.5],[1,0.5]];portConstraint=eastwest;top=0;left=0;right=0;bottom=0;" parent="C-vyLk0tnHw3VtMMgP7b-13" vertex="1">
          <mxGeometry y="60" width="250" height="30" as="geometry" />
        </mxCell>
        <mxCell id="C-vyLk0tnHw3VtMMgP7b-18" value="FK1" style="shape=partialRectangle;overflow=hidden;connectable=0;fillColor=none;top=0;left=0;bottom=0;right=0;" parent="C-vyLk0tnHw3VtMMgP7b-17" vertex="1">
          <mxGeometry width="30" height="30" as="geometry">
            <mxRectangle width="30" height="30" as="alternateBounds" />
          </mxGeometry>
        </mxCell>
        <mxCell id="C-vyLk0tnHw3VtMMgP7b-19" value="topic_id int NOT NULL" style="shape=partialRectangle;overflow=hidden;connectable=0;fillColor=none;top=0;left=0;bottom=0;right=0;align=left;spacingLeft=6;" parent="C-vyLk0tnHw3VtMMgP7b-17" vertex="1">
          <mxGeometry x="30" width="220" height="30" as="geometry">
            <mxRectangle width="220" height="30" as="alternateBounds" />
          </mxGeometry>
        </mxCell>
        <mxCell id="C-vyLk0tnHw3VtMMgP7b-20" value="" style="shape=partialRectangle;collapsible=0;dropTarget=0;pointerEvents=0;fillColor=none;points=[[0,0.5],[1,0.5]];portConstraint=eastwest;top=0;left=0;right=0;bottom=0;" parent="C-vyLk0tnHw3VtMMgP7b-13" vertex="1">
          <mxGeometry y="90" width="250" height="30" as="geometry" />
        </mxCell>
        <mxCell id="C-vyLk0tnHw3VtMMgP7b-21" value="" style="shape=partialRectangle;overflow=hidden;connectable=0;fillColor=none;top=0;left=0;bottom=0;right=0;" parent="C-vyLk0tnHw3VtMMgP7b-20" vertex="1">
          <mxGeometry width="30" height="30" as="geometry">
            <mxRectangle width="30" height="30" as="alternateBounds" />
          </mxGeometry>
        </mxCell>
        <mxCell id="C-vyLk0tnHw3VtMMgP7b-22" value="" style="shape=partialRectangle;overflow=hidden;connectable=0;fillColor=none;top=0;left=0;bottom=0;right=0;align=left;spacingLeft=6;" parent="C-vyLk0tnHw3VtMMgP7b-20" vertex="1">
          <mxGeometry x="30" width="220" height="30" as="geometry">
            <mxRectangle width="220" height="30" as="alternateBounds" />
          </mxGeometry>
        </mxCell>
        <mxCell id="C-vyLk0tnHw3VtMMgP7b-23" value="Attendance" style="shape=table;startSize=30;container=1;collapsible=1;childLayout=tableLayout;fixedRows=1;rowLines=0;fontStyle=1;align=center;resizeLast=1;" parent="1" vertex="1">
          <mxGeometry x="120" y="210" width="250" height="180" as="geometry" />
        </mxCell>
        <mxCell id="C-vyLk0tnHw3VtMMgP7b-24" value="" style="shape=partialRectangle;collapsible=0;dropTarget=0;pointerEvents=0;fillColor=none;points=[[0,0.5],[1,0.5]];portConstraint=eastwest;top=0;left=0;right=0;bottom=1;" parent="C-vyLk0tnHw3VtMMgP7b-23" vertex="1">
          <mxGeometry y="30" width="250" height="30" as="geometry" />
        </mxCell>
        <mxCell id="C-vyLk0tnHw3VtMMgP7b-25" value="PK" style="shape=partialRectangle;overflow=hidden;connectable=0;fillColor=none;top=0;left=0;bottom=0;right=0;fontStyle=1;" parent="C-vyLk0tnHw3VtMMgP7b-24" vertex="1">
          <mxGeometry width="40" height="30" as="geometry">
            <mxRectangle width="40" height="30" as="alternateBounds" />
          </mxGeometry>
        </mxCell>
        <mxCell id="C-vyLk0tnHw3VtMMgP7b-26" value="id int NOT NULL " style="shape=partialRectangle;overflow=hidden;connectable=0;fillColor=none;top=0;left=0;bottom=0;right=0;align=left;spacingLeft=6;fontStyle=5;" parent="C-vyLk0tnHw3VtMMgP7b-24" vertex="1">
          <mxGeometry x="40" width="210" height="30" as="geometry">
            <mxRectangle width="210" height="30" as="alternateBounds" />
          </mxGeometry>
        </mxCell>
        <mxCell id="Y8PTiHZSludacNB3pOwr-104" value="" style="shape=partialRectangle;collapsible=0;dropTarget=0;pointerEvents=0;fillColor=none;points=[[0,0.5],[1,0.5]];portConstraint=eastwest;top=0;left=0;right=0;bottom=1;" vertex="1" parent="C-vyLk0tnHw3VtMMgP7b-23">
          <mxGeometry y="60" width="250" height="30" as="geometry" />
        </mxCell>
        <mxCell id="Y8PTiHZSludacNB3pOwr-105" value="PK" style="shape=partialRectangle;overflow=hidden;connectable=0;fillColor=none;top=0;left=0;bottom=0;right=0;fontStyle=1;" vertex="1" parent="Y8PTiHZSludacNB3pOwr-104">
          <mxGeometry width="40" height="30" as="geometry">
            <mxRectangle width="40" height="30" as="alternateBounds" />
          </mxGeometry>
        </mxCell>
        <mxCell id="Y8PTiHZSludacNB3pOwr-106" value="id int NOT NULL " style="shape=partialRectangle;overflow=hidden;connectable=0;fillColor=none;top=0;left=0;bottom=0;right=0;align=left;spacingLeft=6;fontStyle=5;" vertex="1" parent="Y8PTiHZSludacNB3pOwr-104">
          <mxGeometry x="40" width="210" height="30" as="geometry">
            <mxRectangle width="210" height="30" as="alternateBounds" />
          </mxGeometry>
        </mxCell>
        <mxCell id="C-vyLk0tnHw3VtMMgP7b-27" value="" style="shape=partialRectangle;collapsible=0;dropTarget=0;pointerEvents=0;fillColor=none;points=[[0,0.5],[1,0.5]];portConstraint=eastwest;top=0;left=0;right=0;bottom=0;" parent="C-vyLk0tnHw3VtMMgP7b-23" vertex="1">
          <mxGeometry y="90" width="250" height="90" as="geometry" />
        </mxCell>
        <mxCell id="C-vyLk0tnHw3VtMMgP7b-28" value="FK" style="shape=partialRectangle;overflow=hidden;connectable=0;fillColor=none;top=0;left=0;bottom=0;right=0;" parent="C-vyLk0tnHw3VtMMgP7b-27" vertex="1">
          <mxGeometry width="40" height="90" as="geometry">
            <mxRectangle width="40" height="90" as="alternateBounds" />
          </mxGeometry>
        </mxCell>
        <mxCell id="C-vyLk0tnHw3VtMMgP7b-29" value="user_id int NOT NULL&#xa;batch_no int NOT NULL" style="shape=partialRectangle;overflow=hidden;connectable=0;fillColor=none;top=0;left=0;bottom=0;right=0;align=left;spacingLeft=6;" parent="C-vyLk0tnHw3VtMMgP7b-27" vertex="1">
          <mxGeometry x="40" width="210" height="90" as="geometry">
            <mxRectangle width="210" height="90" as="alternateBounds" />
          </mxGeometry>
        </mxCell>
        <mxCell id="Y8PTiHZSludacNB3pOwr-1" value="&lt;div style=&quot;text-align: justify&quot;&gt;&lt;span style=&quot;text-align: left&quot;&gt;user_name char(50) NOT NULL&lt;/span&gt;&lt;/div&gt;&lt;span style=&quot;text-align: left&quot;&gt;&lt;div style=&quot;text-align: justify&quot;&gt;&lt;span&gt;date date NOT NULL&lt;/span&gt;&lt;/div&gt;&lt;/span&gt;&lt;span style=&quot;text-align: left&quot;&gt;&lt;div style=&quot;text-align: justify&quot;&gt;&lt;span&gt;attendance boolean&lt;/span&gt;&lt;/div&gt;&lt;/span&gt;" style="rounded=0;whiteSpace=wrap;html=1;" vertex="1" parent="1">
          <mxGeometry x="160" y="360" width="210" height="60" as="geometry" />
        </mxCell>
        <mxCell id="Y8PTiHZSludacNB3pOwr-2" value="" style="rounded=0;whiteSpace=wrap;html=1;" vertex="1" parent="1">
          <mxGeometry x="120" y="360" width="40" height="60" as="geometry" />
        </mxCell>
        <mxCell id="Y8PTiHZSludacNB3pOwr-10" value="&lt;div style=&quot;text-align: justify&quot;&gt;&lt;span style=&quot;text-align: left&quot;&gt;array int NOT NULL&lt;/span&gt;&lt;/div&gt;&lt;span style=&quot;text-align: left&quot;&gt;&lt;div style=&quot;text-align: justify&quot;&gt;&lt;span&gt;string int NOT NULL&lt;/span&gt;&lt;/div&gt;&lt;div style=&quot;text-align: justify&quot;&gt;&lt;span style=&quot;text-align: center&quot;&gt;basics int NOT NULL&lt;/span&gt;&lt;/div&gt;&lt;/span&gt;" style="rounded=0;whiteSpace=wrap;html=1;" vertex="1" parent="1">
          <mxGeometry x="160" y="870" width="210" height="60" as="geometry" />
        </mxCell>
        <mxCell id="Y8PTiHZSludacNB3pOwr-11" value="" style="rounded=0;whiteSpace=wrap;html=1;" vertex="1" parent="1">
          <mxGeometry x="120" y="870" width="40" height="60" as="geometry" />
        </mxCell>
        <mxCell id="Y8PTiHZSludacNB3pOwr-12" value="Codecata" style="shape=table;startSize=30;container=1;collapsible=1;childLayout=tableLayout;fixedRows=1;rowLines=0;fontStyle=1;align=center;resizeLast=1;" vertex="1" parent="1">
          <mxGeometry x="120" y="720" width="250" height="150" as="geometry" />
        </mxCell>
        <mxCell id="Y8PTiHZSludacNB3pOwr-13" value="" style="shape=partialRectangle;collapsible=0;dropTarget=0;pointerEvents=0;fillColor=none;points=[[0,0.5],[1,0.5]];portConstraint=eastwest;top=0;left=0;right=0;bottom=1;" vertex="1" parent="Y8PTiHZSludacNB3pOwr-12">
          <mxGeometry y="30" width="250" height="30" as="geometry" />
        </mxCell>
        <mxCell id="Y8PTiHZSludacNB3pOwr-14" value="PK" style="shape=partialRectangle;overflow=hidden;connectable=0;fillColor=none;top=0;left=0;bottom=0;right=0;fontStyle=1;" vertex="1" parent="Y8PTiHZSludacNB3pOwr-13">
          <mxGeometry width="40" height="30" as="geometry">
            <mxRectangle width="40" height="30" as="alternateBounds" />
          </mxGeometry>
        </mxCell>
        <mxCell id="Y8PTiHZSludacNB3pOwr-15" value="program_id int NOT NULL " style="shape=partialRectangle;overflow=hidden;connectable=0;fillColor=none;top=0;left=0;bottom=0;right=0;align=left;spacingLeft=6;fontStyle=5;" vertex="1" parent="Y8PTiHZSludacNB3pOwr-13">
          <mxGeometry x="40" width="210" height="30" as="geometry">
            <mxRectangle width="210" height="30" as="alternateBounds" />
          </mxGeometry>
        </mxCell>
        <mxCell id="Y8PTiHZSludacNB3pOwr-16" value="" style="shape=partialRectangle;collapsible=0;dropTarget=0;pointerEvents=0;fillColor=none;points=[[0,0.5],[1,0.5]];portConstraint=eastwest;top=0;left=0;right=0;bottom=0;" vertex="1" parent="Y8PTiHZSludacNB3pOwr-12">
          <mxGeometry y="60" width="250" height="90" as="geometry" />
        </mxCell>
        <mxCell id="Y8PTiHZSludacNB3pOwr-17" value="FK" style="shape=partialRectangle;overflow=hidden;connectable=0;fillColor=none;top=0;left=0;bottom=0;right=0;" vertex="1" parent="Y8PTiHZSludacNB3pOwr-16">
          <mxGeometry width="40" height="90" as="geometry">
            <mxRectangle width="40" height="90" as="alternateBounds" />
          </mxGeometry>
        </mxCell>
        <mxCell id="Y8PTiHZSludacNB3pOwr-18" value="user_id int NOT NULL" style="shape=partialRectangle;overflow=hidden;connectable=0;fillColor=none;top=0;left=0;bottom=0;right=0;align=left;spacingLeft=6;" vertex="1" parent="Y8PTiHZSludacNB3pOwr-16">
          <mxGeometry x="40" width="210" height="90" as="geometry">
            <mxRectangle width="210" height="90" as="alternateBounds" />
          </mxGeometry>
        </mxCell>
        <mxCell id="Y8PTiHZSludacNB3pOwr-19" value="Company Drives" style="shape=table;startSize=30;container=1;collapsible=1;childLayout=tableLayout;fixedRows=1;rowLines=0;fontStyle=1;align=center;resizeLast=1;" vertex="1" parent="1">
          <mxGeometry x="160" y="10" width="250" height="90" as="geometry" />
        </mxCell>
        <mxCell id="Y8PTiHZSludacNB3pOwr-20" value="" style="shape=partialRectangle;collapsible=0;dropTarget=0;pointerEvents=0;fillColor=none;points=[[0,0.5],[1,0.5]];portConstraint=eastwest;top=0;left=0;right=0;bottom=1;" vertex="1" parent="Y8PTiHZSludacNB3pOwr-19">
          <mxGeometry y="30" width="250" height="30" as="geometry" />
        </mxCell>
        <mxCell id="Y8PTiHZSludacNB3pOwr-21" value="PK" style="shape=partialRectangle;overflow=hidden;connectable=0;fillColor=none;top=0;left=0;bottom=0;right=0;fontStyle=1;" vertex="1" parent="Y8PTiHZSludacNB3pOwr-20">
          <mxGeometry width="40" height="30" as="geometry">
            <mxRectangle width="40" height="30" as="alternateBounds" />
          </mxGeometry>
        </mxCell>
        <mxCell id="Y8PTiHZSludacNB3pOwr-22" value="company_id int NOT NULL " style="shape=partialRectangle;overflow=hidden;connectable=0;fillColor=none;top=0;left=0;bottom=0;right=0;align=left;spacingLeft=6;fontStyle=5;" vertex="1" parent="Y8PTiHZSludacNB3pOwr-20">
          <mxGeometry x="40" width="210" height="30" as="geometry">
            <mxRectangle width="210" height="30" as="alternateBounds" />
          </mxGeometry>
        </mxCell>
        <mxCell id="Y8PTiHZSludacNB3pOwr-23" value="" style="shape=partialRectangle;collapsible=0;dropTarget=0;pointerEvents=0;fillColor=none;points=[[0,0.5],[1,0.5]];portConstraint=eastwest;top=0;left=0;right=0;bottom=0;" vertex="1" parent="Y8PTiHZSludacNB3pOwr-19">
          <mxGeometry y="60" width="250" height="30" as="geometry" />
        </mxCell>
        <mxCell id="Y8PTiHZSludacNB3pOwr-24" value="FK" style="shape=partialRectangle;overflow=hidden;connectable=0;fillColor=none;top=0;left=0;bottom=0;right=0;" vertex="1" parent="Y8PTiHZSludacNB3pOwr-23">
          <mxGeometry width="40" height="30" as="geometry">
            <mxRectangle width="40" height="30" as="alternateBounds" />
          </mxGeometry>
        </mxCell>
        <mxCell id="Y8PTiHZSludacNB3pOwr-25" value="user_id int NOT NULL" style="shape=partialRectangle;overflow=hidden;connectable=0;fillColor=none;top=0;left=0;bottom=0;right=0;align=left;spacingLeft=6;" vertex="1" parent="Y8PTiHZSludacNB3pOwr-23">
          <mxGeometry x="40" width="210" height="30" as="geometry">
            <mxRectangle width="210" height="30" as="alternateBounds" />
          </mxGeometry>
        </mxCell>
        <mxCell id="Y8PTiHZSludacNB3pOwr-26" value="" style="rounded=0;whiteSpace=wrap;html=1;strokeWidth=1;fillColor=none;align=left;" vertex="1" parent="1">
          <mxGeometry x="160" y="100" width="40" height="60" as="geometry" />
        </mxCell>
        <mxCell id="Y8PTiHZSludacNB3pOwr-27" value="&lt;div style=&quot;text-align: justify&quot;&gt;&lt;span style=&quot;text-align: left&quot;&gt;company_name char(50) NOT NULL&lt;/span&gt;&lt;/div&gt;&lt;span&gt;&lt;div style=&quot;text-align: justify&quot;&gt;no_position_avaiable int NOT NULL&lt;br&gt;&lt;/div&gt;&lt;/span&gt;&lt;span&gt;&lt;/span&gt;" style="rounded=0;whiteSpace=wrap;html=1;strokeWidth=1;fillColor=none;align=left;" vertex="1" parent="1">
          <mxGeometry x="200" y="100" width="210" height="60" as="geometry" />
        </mxCell>
        <mxCell id="Y8PTiHZSludacNB3pOwr-28" value="" style="rounded=0;whiteSpace=wrap;html=1;strokeWidth=1;fillColor=none;align=left;" vertex="1" parent="1">
          <mxGeometry x="490" y="490" width="30" height="60" as="geometry" />
        </mxCell>
        <mxCell id="Y8PTiHZSludacNB3pOwr-29" value="&lt;br&gt;&lt;span&gt;mentor_name char(50) NOT NULL&lt;/span&gt;&lt;br&gt;&lt;span style=&quot;color: rgb(0 , 0 , 0) ; font-family: &amp;#34;helvetica&amp;#34; ; font-size: 12px ; font-style: normal ; font-weight: 400 ; letter-spacing: normal ; text-align: left ; text-indent: 0px ; text-transform: none ; word-spacing: 0px ; background-color: rgb(248 , 249 , 250) ; display: inline ; float: none&quot;&gt;session_time date NOT NULL&lt;/span&gt;&lt;br&gt;" style="rounded=0;whiteSpace=wrap;html=1;strokeWidth=1;fillColor=none;align=left;" vertex="1" parent="1">
          <mxGeometry x="520" y="490" width="220" height="60" as="geometry" />
        </mxCell>
        <mxCell id="Y8PTiHZSludacNB3pOwr-30" value="Students Activated Course" style="shape=table;startSize=30;container=1;collapsible=1;childLayout=tableLayout;fixedRows=1;rowLines=0;fontStyle=1;align=center;resizeLast=1;" vertex="1" parent="1">
          <mxGeometry x="560" y="840" width="250" height="130" as="geometry" />
        </mxCell>
        <mxCell id="Y8PTiHZSludacNB3pOwr-31" value="" style="shape=partialRectangle;collapsible=0;dropTarget=0;pointerEvents=0;fillColor=none;points=[[0,0.5],[1,0.5]];portConstraint=eastwest;top=0;left=0;right=0;bottom=1;" vertex="1" parent="Y8PTiHZSludacNB3pOwr-30">
          <mxGeometry y="30" width="250" height="40" as="geometry" />
        </mxCell>
        <mxCell id="Y8PTiHZSludacNB3pOwr-32" value="PK" style="shape=partialRectangle;overflow=hidden;connectable=0;fillColor=none;top=0;left=0;bottom=0;right=0;fontStyle=1;" vertex="1" parent="Y8PTiHZSludacNB3pOwr-31">
          <mxGeometry width="30" height="40" as="geometry">
            <mxRectangle width="30" height="40" as="alternateBounds" />
          </mxGeometry>
        </mxCell>
        <mxCell id="Y8PTiHZSludacNB3pOwr-33" value="idÂ int NOT NULL " style="shape=partialRectangle;overflow=hidden;connectable=0;fillColor=none;top=0;left=0;bottom=0;right=0;align=left;spacingLeft=6;fontStyle=5;" vertex="1" parent="Y8PTiHZSludacNB3pOwr-31">
          <mxGeometry x="30" width="220" height="40" as="geometry">
            <mxRectangle width="220" height="40" as="alternateBounds" />
          </mxGeometry>
        </mxCell>
        <mxCell id="Y8PTiHZSludacNB3pOwr-34" value="" style="shape=partialRectangle;collapsible=0;dropTarget=0;pointerEvents=0;fillColor=none;points=[[0,0.5],[1,0.5]];portConstraint=eastwest;top=0;left=0;right=0;bottom=0;" vertex="1" parent="Y8PTiHZSludacNB3pOwr-30">
          <mxGeometry y="70" width="250" height="30" as="geometry" />
        </mxCell>
        <mxCell id="Y8PTiHZSludacNB3pOwr-35" value="FK1" style="shape=partialRectangle;overflow=hidden;connectable=0;fillColor=none;top=0;left=0;bottom=0;right=0;" vertex="1" parent="Y8PTiHZSludacNB3pOwr-34">
          <mxGeometry width="30" height="30" as="geometry">
            <mxRectangle width="30" height="30" as="alternateBounds" />
          </mxGeometry>
        </mxCell>
        <mxCell id="Y8PTiHZSludacNB3pOwr-36" value="student_id int NOT NULL&#xa;topic_id int NOT NULL" style="shape=partialRectangle;overflow=hidden;connectable=0;fillColor=none;top=0;left=0;bottom=0;right=0;align=left;spacingLeft=6;" vertex="1" parent="Y8PTiHZSludacNB3pOwr-34">
          <mxGeometry x="30" width="220" height="30" as="geometry">
            <mxRectangle width="220" height="30" as="alternateBounds" />
          </mxGeometry>
        </mxCell>
        <mxCell id="Y8PTiHZSludacNB3pOwr-37" value="" style="shape=partialRectangle;collapsible=0;dropTarget=0;pointerEvents=0;fillColor=none;points=[[0,0.5],[1,0.5]];portConstraint=eastwest;top=0;left=0;right=0;bottom=0;" vertex="1" parent="Y8PTiHZSludacNB3pOwr-30">
          <mxGeometry y="100" width="250" height="30" as="geometry" />
        </mxCell>
        <mxCell id="Y8PTiHZSludacNB3pOwr-38" value="" style="shape=partialRectangle;overflow=hidden;connectable=0;fillColor=none;top=0;left=0;bottom=0;right=0;" vertex="1" parent="Y8PTiHZSludacNB3pOwr-37">
          <mxGeometry width="30" height="30" as="geometry">
            <mxRectangle width="30" height="30" as="alternateBounds" />
          </mxGeometry>
        </mxCell>
        <mxCell id="Y8PTiHZSludacNB3pOwr-39" value="" style="shape=partialRectangle;overflow=hidden;connectable=0;fillColor=none;top=0;left=0;bottom=0;right=0;align=left;spacingLeft=6;" vertex="1" parent="Y8PTiHZSludacNB3pOwr-37">
          <mxGeometry x="30" width="220" height="30" as="geometry">
            <mxRectangle width="220" height="30" as="alternateBounds" />
          </mxGeometry>
        </mxCell>
        <mxCell id="Y8PTiHZSludacNB3pOwr-40" value="Task" style="shape=table;startSize=30;container=1;collapsible=1;childLayout=tableLayout;fixedRows=1;rowLines=0;fontStyle=1;align=center;resizeLast=1;" vertex="1" parent="1">
          <mxGeometry x="120" y="460" width="250" height="140" as="geometry" />
        </mxCell>
        <mxCell id="Y8PTiHZSludacNB3pOwr-41" value="" style="shape=partialRectangle;collapsible=0;dropTarget=0;pointerEvents=0;fillColor=none;points=[[0,0.5],[1,0.5]];portConstraint=eastwest;top=0;left=0;right=0;bottom=1;" vertex="1" parent="Y8PTiHZSludacNB3pOwr-40">
          <mxGeometry y="30" width="250" height="40" as="geometry" />
        </mxCell>
        <mxCell id="Y8PTiHZSludacNB3pOwr-42" value="PK" style="shape=partialRectangle;overflow=hidden;connectable=0;fillColor=none;top=0;left=0;bottom=0;right=0;fontStyle=1;" vertex="1" parent="Y8PTiHZSludacNB3pOwr-41">
          <mxGeometry width="30" height="40" as="geometry">
            <mxRectangle width="30" height="40" as="alternateBounds" />
          </mxGeometry>
        </mxCell>
        <mxCell id="Y8PTiHZSludacNB3pOwr-43" value="idÂ int NOT NULL " style="shape=partialRectangle;overflow=hidden;connectable=0;fillColor=none;top=0;left=0;bottom=0;right=0;align=left;spacingLeft=6;fontStyle=5;" vertex="1" parent="Y8PTiHZSludacNB3pOwr-41">
          <mxGeometry x="30" width="220" height="40" as="geometry">
            <mxRectangle width="220" height="40" as="alternateBounds" />
          </mxGeometry>
        </mxCell>
        <mxCell id="Y8PTiHZSludacNB3pOwr-44" value="" style="shape=partialRectangle;collapsible=0;dropTarget=0;pointerEvents=0;fillColor=none;points=[[0,0.5],[1,0.5]];portConstraint=eastwest;top=0;left=0;right=0;bottom=0;" vertex="1" parent="Y8PTiHZSludacNB3pOwr-40">
          <mxGeometry y="70" width="250" height="40" as="geometry" />
        </mxCell>
        <mxCell id="Y8PTiHZSludacNB3pOwr-45" value="FK1" style="shape=partialRectangle;overflow=hidden;connectable=0;fillColor=none;top=0;left=0;bottom=0;right=0;" vertex="1" parent="Y8PTiHZSludacNB3pOwr-44">
          <mxGeometry width="30" height="40" as="geometry">
            <mxRectangle width="30" height="40" as="alternateBounds" />
          </mxGeometry>
        </mxCell>
        <mxCell id="Y8PTiHZSludacNB3pOwr-46" value="mentor_id int NOT NULL&#xa;topic_id int NOT NULL" style="shape=partialRectangle;overflow=hidden;connectable=0;fillColor=none;top=0;left=0;bottom=0;right=0;align=left;spacingLeft=6;" vertex="1" parent="Y8PTiHZSludacNB3pOwr-44">
          <mxGeometry x="30" width="220" height="40" as="geometry">
            <mxRectangle width="220" height="40" as="alternateBounds" />
          </mxGeometry>
        </mxCell>
        <mxCell id="Y8PTiHZSludacNB3pOwr-47" value="" style="shape=partialRectangle;collapsible=0;dropTarget=0;pointerEvents=0;fillColor=none;points=[[0,0.5],[1,0.5]];portConstraint=eastwest;top=0;left=0;right=0;bottom=0;" vertex="1" parent="Y8PTiHZSludacNB3pOwr-40">
          <mxGeometry y="110" width="250" height="30" as="geometry" />
        </mxCell>
        <mxCell id="Y8PTiHZSludacNB3pOwr-48" value="" style="shape=partialRectangle;overflow=hidden;connectable=0;fillColor=none;top=0;left=0;bottom=0;right=0;" vertex="1" parent="Y8PTiHZSludacNB3pOwr-47">
          <mxGeometry width="30" height="30" as="geometry">
            <mxRectangle width="30" height="30" as="alternateBounds" />
          </mxGeometry>
        </mxCell>
        <mxCell id="Y8PTiHZSludacNB3pOwr-49" value="" style="shape=partialRectangle;overflow=hidden;connectable=0;fillColor=none;top=0;left=0;bottom=0;right=0;align=left;spacingLeft=6;" vertex="1" parent="Y8PTiHZSludacNB3pOwr-47">
          <mxGeometry x="30" width="220" height="30" as="geometry">
            <mxRectangle width="220" height="30" as="alternateBounds" />
          </mxGeometry>
        </mxCell>
        <mxCell id="Y8PTiHZSludacNB3pOwr-50" value="" style="rounded=0;whiteSpace=wrap;html=1;strokeWidth=1;fillColor=none;align=left;" vertex="1" parent="1">
          <mxGeometry x="120" y="600" width="30" height="50" as="geometry" />
        </mxCell>
        <mxCell id="Y8PTiHZSludacNB3pOwr-51" value="&lt;br&gt;&lt;span&gt;task_name char(50) NOT NULL&lt;/span&gt;&lt;br&gt;&lt;span style=&quot;color: rgb(0 , 0 , 0) ; font-family: &amp;#34;helvetica&amp;#34; ; font-size: 12px ; font-style: normal ; font-weight: 400 ; letter-spacing: normal ; text-align: left ; text-indent: 0px ; text-transform: none ; word-spacing: 0px ; background-color: rgb(248 , 249 , 250) ; display: inline ; float: none&quot;&gt;due_date date NOT NULL&lt;/span&gt;" style="rounded=0;whiteSpace=wrap;html=1;strokeWidth=1;fillColor=none;align=left;" vertex="1" parent="1">
          <mxGeometry x="150" y="600" width="220" height="50" as="geometry" />
        </mxCell>
        <mxCell id="Y8PTiHZSludacNB3pOwr-52" value="Topic" style="shape=table;startSize=30;container=1;collapsible=1;childLayout=tableLayout;fixedRows=1;rowLines=0;fontStyle=1;align=center;resizeLast=1;" vertex="1" parent="1">
          <mxGeometry x="490" y="590" width="250" height="120" as="geometry" />
        </mxCell>
        <mxCell id="Y8PTiHZSludacNB3pOwr-53" value="" style="shape=partialRectangle;collapsible=0;dropTarget=0;pointerEvents=0;fillColor=none;points=[[0,0.5],[1,0.5]];portConstraint=eastwest;top=0;left=0;right=0;bottom=1;" vertex="1" parent="Y8PTiHZSludacNB3pOwr-52">
          <mxGeometry y="30" width="250" height="40" as="geometry" />
        </mxCell>
        <mxCell id="Y8PTiHZSludacNB3pOwr-54" value="PK" style="shape=partialRectangle;overflow=hidden;connectable=0;fillColor=none;top=0;left=0;bottom=0;right=0;fontStyle=1;" vertex="1" parent="Y8PTiHZSludacNB3pOwr-53">
          <mxGeometry width="30" height="40" as="geometry">
            <mxRectangle width="30" height="40" as="alternateBounds" />
          </mxGeometry>
        </mxCell>
        <mxCell id="Y8PTiHZSludacNB3pOwr-55" value="idÂ int NOT NULL " style="shape=partialRectangle;overflow=hidden;connectable=0;fillColor=none;top=0;left=0;bottom=0;right=0;align=left;spacingLeft=6;fontStyle=5;" vertex="1" parent="Y8PTiHZSludacNB3pOwr-53">
          <mxGeometry x="30" width="220" height="40" as="geometry">
            <mxRectangle width="220" height="40" as="alternateBounds" />
          </mxGeometry>
        </mxCell>
        <mxCell id="Y8PTiHZSludacNB3pOwr-56" value="" style="shape=partialRectangle;collapsible=0;dropTarget=0;pointerEvents=0;fillColor=none;points=[[0,0.5],[1,0.5]];portConstraint=eastwest;top=0;left=0;right=0;bottom=0;" vertex="1" parent="Y8PTiHZSludacNB3pOwr-52">
          <mxGeometry y="70" width="250" height="20" as="geometry" />
        </mxCell>
        <mxCell id="Y8PTiHZSludacNB3pOwr-57" value="FK1" style="shape=partialRectangle;overflow=hidden;connectable=0;fillColor=none;top=0;left=0;bottom=0;right=0;" vertex="1" parent="Y8PTiHZSludacNB3pOwr-56">
          <mxGeometry width="30" height="20" as="geometry">
            <mxRectangle width="30" height="20" as="alternateBounds" />
          </mxGeometry>
        </mxCell>
        <mxCell id="Y8PTiHZSludacNB3pOwr-58" value="mentor_id int NOT NULL" style="shape=partialRectangle;overflow=hidden;connectable=0;fillColor=none;top=0;left=0;bottom=0;right=0;align=left;spacingLeft=6;" vertex="1" parent="Y8PTiHZSludacNB3pOwr-56">
          <mxGeometry x="30" width="220" height="20" as="geometry">
            <mxRectangle width="220" height="20" as="alternateBounds" />
          </mxGeometry>
        </mxCell>
        <mxCell id="Y8PTiHZSludacNB3pOwr-59" value="" style="shape=partialRectangle;collapsible=0;dropTarget=0;pointerEvents=0;fillColor=none;points=[[0,0.5],[1,0.5]];portConstraint=eastwest;top=0;left=0;right=0;bottom=0;" vertex="1" parent="Y8PTiHZSludacNB3pOwr-52">
          <mxGeometry y="90" width="250" height="30" as="geometry" />
        </mxCell>
        <mxCell id="Y8PTiHZSludacNB3pOwr-60" value="" style="shape=partialRectangle;overflow=hidden;connectable=0;fillColor=none;top=0;left=0;bottom=0;right=0;" vertex="1" parent="Y8PTiHZSludacNB3pOwr-59">
          <mxGeometry width="30" height="30" as="geometry">
            <mxRectangle width="30" height="30" as="alternateBounds" />
          </mxGeometry>
        </mxCell>
        <mxCell id="Y8PTiHZSludacNB3pOwr-61" value="" style="shape=partialRectangle;overflow=hidden;connectable=0;fillColor=none;top=0;left=0;bottom=0;right=0;align=left;spacingLeft=6;" vertex="1" parent="Y8PTiHZSludacNB3pOwr-59">
          <mxGeometry x="30" width="220" height="30" as="geometry">
            <mxRectangle width="220" height="30" as="alternateBounds" />
          </mxGeometry>
        </mxCell>
        <mxCell id="Y8PTiHZSludacNB3pOwr-62" value="&lt;br&gt;&lt;span&gt;topic_name char(50) NOT NULL&lt;/span&gt;&lt;br&gt;" style="rounded=0;whiteSpace=wrap;html=1;strokeWidth=1;fillColor=none;align=left;" vertex="1" parent="1">
          <mxGeometry x="520" y="710" width="220" height="50" as="geometry" />
        </mxCell>
        <mxCell id="Y8PTiHZSludacNB3pOwr-63" value="" style="rounded=0;whiteSpace=wrap;html=1;strokeWidth=1;fillColor=none;align=left;" vertex="1" parent="1">
          <mxGeometry x="490" y="710" width="30" height="50" as="geometry" />
        </mxCell>
        <mxCell id="Y8PTiHZSludacNB3pOwr-64" value="User" style="shape=table;startSize=30;container=1;collapsible=1;childLayout=tableLayout;fixedRows=1;rowLines=0;fontStyle=1;align=center;resizeLast=1;" vertex="1" parent="1">
          <mxGeometry x="490" y="170" width="250" height="120" as="geometry" />
        </mxCell>
        <mxCell id="Y8PTiHZSludacNB3pOwr-65" value="" style="shape=partialRectangle;collapsible=0;dropTarget=0;pointerEvents=0;fillColor=none;points=[[0,0.5],[1,0.5]];portConstraint=eastwest;top=0;left=0;right=0;bottom=1;" vertex="1" parent="Y8PTiHZSludacNB3pOwr-64">
          <mxGeometry y="30" width="250" height="30" as="geometry" />
        </mxCell>
        <mxCell id="Y8PTiHZSludacNB3pOwr-66" value="PK" style="shape=partialRectangle;overflow=hidden;connectable=0;fillColor=none;top=0;left=0;bottom=0;right=0;fontStyle=1;" vertex="1" parent="Y8PTiHZSludacNB3pOwr-65">
          <mxGeometry width="30" height="30" as="geometry">
            <mxRectangle width="30" height="30" as="alternateBounds" />
          </mxGeometry>
        </mxCell>
        <mxCell id="Y8PTiHZSludacNB3pOwr-67" value="user_idÂ int NOT NULL " style="shape=partialRectangle;overflow=hidden;connectable=0;fillColor=none;top=0;left=0;bottom=0;right=0;align=left;spacingLeft=6;fontStyle=5;" vertex="1" parent="Y8PTiHZSludacNB3pOwr-65">
          <mxGeometry x="30" width="220" height="30" as="geometry">
            <mxRectangle width="220" height="30" as="alternateBounds" />
          </mxGeometry>
        </mxCell>
        <mxCell id="Y8PTiHZSludacNB3pOwr-68" value="" style="shape=partialRectangle;collapsible=0;dropTarget=0;pointerEvents=0;fillColor=none;points=[[0,0.5],[1,0.5]];portConstraint=eastwest;top=0;left=0;right=0;bottom=0;" vertex="1" parent="Y8PTiHZSludacNB3pOwr-64">
          <mxGeometry y="60" width="250" height="30" as="geometry" />
        </mxCell>
        <mxCell id="Y8PTiHZSludacNB3pOwr-69" value="FK1" style="shape=partialRectangle;overflow=hidden;connectable=0;fillColor=none;top=0;left=0;bottom=0;right=0;" vertex="1" parent="Y8PTiHZSludacNB3pOwr-68">
          <mxGeometry width="30" height="30" as="geometry">
            <mxRectangle width="30" height="30" as="alternateBounds" />
          </mxGeometry>
        </mxCell>
        <mxCell id="Y8PTiHZSludacNB3pOwr-70" value="mentor_id int NOT NULL" style="shape=partialRectangle;overflow=hidden;connectable=0;fillColor=none;top=0;left=0;bottom=0;right=0;align=left;spacingLeft=6;" vertex="1" parent="Y8PTiHZSludacNB3pOwr-68">
          <mxGeometry x="30" width="220" height="30" as="geometry">
            <mxRectangle width="220" height="30" as="alternateBounds" />
          </mxGeometry>
        </mxCell>
        <mxCell id="Y8PTiHZSludacNB3pOwr-71" value="" style="shape=partialRectangle;collapsible=0;dropTarget=0;pointerEvents=0;fillColor=none;points=[[0,0.5],[1,0.5]];portConstraint=eastwest;top=0;left=0;right=0;bottom=0;" vertex="1" parent="Y8PTiHZSludacNB3pOwr-64">
          <mxGeometry y="90" width="250" height="30" as="geometry" />
        </mxCell>
        <mxCell id="Y8PTiHZSludacNB3pOwr-72" value="" style="shape=partialRectangle;overflow=hidden;connectable=0;fillColor=none;top=0;left=0;bottom=0;right=0;" vertex="1" parent="Y8PTiHZSludacNB3pOwr-71">
          <mxGeometry width="30" height="30" as="geometry">
            <mxRectangle width="30" height="30" as="alternateBounds" />
          </mxGeometry>
        </mxCell>
        <mxCell id="Y8PTiHZSludacNB3pOwr-73" value="" style="shape=partialRectangle;overflow=hidden;connectable=0;fillColor=none;top=0;left=0;bottom=0;right=0;align=left;spacingLeft=6;" vertex="1" parent="Y8PTiHZSludacNB3pOwr-71">
          <mxGeometry x="30" width="220" height="30" as="geometry">
            <mxRectangle width="220" height="30" as="alternateBounds" />
          </mxGeometry>
        </mxCell>
        <mxCell id="Y8PTiHZSludacNB3pOwr-74" value="" style="rounded=0;whiteSpace=wrap;html=1;strokeWidth=1;fillColor=none;align=left;" vertex="1" parent="1">
          <mxGeometry x="490" y="290" width="30" height="50" as="geometry" />
        </mxCell>
        <mxCell id="Y8PTiHZSludacNB3pOwr-75" value="&lt;br&gt;&lt;span&gt;username char(50) NOT NULL&lt;/span&gt;&lt;br&gt;&lt;span&gt;mail TEXT&lt;/span&gt;" style="rounded=0;whiteSpace=wrap;html=1;strokeWidth=1;fillColor=none;align=left;" vertex="1" parent="1">
          <mxGeometry x="520" y="290" width="220" height="50" as="geometry" />
        </mxCell>
        <mxCell id="Y8PTiHZSludacNB3pOwr-81" value="Course" style="shape=table;startSize=30;container=1;collapsible=1;childLayout=tableLayout;fixedRows=1;rowLines=0;fontStyle=1;align=center;resizeLast=1;" vertex="1" parent="1">
          <mxGeometry x="270" y="980" width="250" height="150" as="geometry" />
        </mxCell>
        <mxCell id="Y8PTiHZSludacNB3pOwr-82" value="" style="shape=partialRectangle;collapsible=0;dropTarget=0;pointerEvents=0;fillColor=none;points=[[0,0.5],[1,0.5]];portConstraint=eastwest;top=0;left=0;right=0;bottom=1;" vertex="1" parent="Y8PTiHZSludacNB3pOwr-81">
          <mxGeometry y="30" width="250" height="50" as="geometry" />
        </mxCell>
        <mxCell id="Y8PTiHZSludacNB3pOwr-83" value="PK" style="shape=partialRectangle;overflow=hidden;connectable=0;fillColor=none;top=0;left=0;bottom=0;right=0;fontStyle=1;" vertex="1" parent="Y8PTiHZSludacNB3pOwr-82">
          <mxGeometry width="30" height="50" as="geometry">
            <mxRectangle width="30" height="50" as="alternateBounds" />
          </mxGeometry>
        </mxCell>
        <mxCell id="Y8PTiHZSludacNB3pOwr-84" value="course_idÂ int NOT NULL " style="shape=partialRectangle;overflow=hidden;connectable=0;fillColor=none;top=0;left=0;bottom=0;right=0;align=left;spacingLeft=6;fontStyle=5;" vertex="1" parent="Y8PTiHZSludacNB3pOwr-82">
          <mxGeometry x="30" width="220" height="50" as="geometry">
            <mxRectangle width="220" height="50" as="alternateBounds" />
          </mxGeometry>
        </mxCell>
        <mxCell id="Y8PTiHZSludacNB3pOwr-85" value="" style="shape=partialRectangle;collapsible=0;dropTarget=0;pointerEvents=0;fillColor=none;points=[[0,0.5],[1,0.5]];portConstraint=eastwest;top=0;left=0;right=0;bottom=0;" vertex="1" parent="Y8PTiHZSludacNB3pOwr-81">
          <mxGeometry y="80" width="250" height="30" as="geometry" />
        </mxCell>
        <mxCell id="Y8PTiHZSludacNB3pOwr-86" value="" style="shape=partialRectangle;overflow=hidden;connectable=0;fillColor=none;top=0;left=0;bottom=0;right=0;" vertex="1" parent="Y8PTiHZSludacNB3pOwr-85">
          <mxGeometry width="30" height="30" as="geometry">
            <mxRectangle width="30" height="30" as="alternateBounds" />
          </mxGeometry>
        </mxCell>
        <mxCell id="Y8PTiHZSludacNB3pOwr-87" value="course_name char(50) NOT NULL" style="shape=partialRectangle;overflow=hidden;connectable=0;fillColor=none;top=0;left=0;bottom=0;right=0;align=left;spacingLeft=6;" vertex="1" parent="Y8PTiHZSludacNB3pOwr-85">
          <mxGeometry x="30" width="220" height="30" as="geometry">
            <mxRectangle width="220" height="30" as="alternateBounds" />
          </mxGeometry>
        </mxCell>
        <mxCell id="Y8PTiHZSludacNB3pOwr-88" value="" style="shape=partialRectangle;collapsible=0;dropTarget=0;pointerEvents=0;fillColor=none;points=[[0,0.5],[1,0.5]];portConstraint=eastwest;top=0;left=0;right=0;bottom=0;" vertex="1" parent="Y8PTiHZSludacNB3pOwr-81">
          <mxGeometry y="110" width="250" height="30" as="geometry" />
        </mxCell>
        <mxCell id="Y8PTiHZSludacNB3pOwr-89" value="" style="shape=partialRectangle;overflow=hidden;connectable=0;fillColor=none;top=0;left=0;bottom=0;right=0;" vertex="1" parent="Y8PTiHZSludacNB3pOwr-88">
          <mxGeometry width="30" height="30" as="geometry">
            <mxRectangle width="30" height="30" as="alternateBounds" />
          </mxGeometry>
        </mxCell>
        <mxCell id="Y8PTiHZSludacNB3pOwr-90" value="fees int NOT NULL" style="shape=partialRectangle;overflow=hidden;connectable=0;fillColor=none;top=0;left=0;bottom=0;right=0;align=left;spacingLeft=6;" vertex="1" parent="Y8PTiHZSludacNB3pOwr-88">
          <mxGeometry x="30" width="220" height="30" as="geometry">
            <mxRectangle width="220" height="30" as="alternateBounds" />
          </mxGeometry>
        </mxCell>
        <mxCell id="Y8PTiHZSludacNB3pOwr-97" value="" style="endArrow=none;html=1;rounded=0;endSize=5;startSize=5;jumpSize=5;" edge="1" parent="1">
          <mxGeometry relative="1" as="geometry">
            <mxPoint x="740" y="420" as="sourcePoint" />
            <mxPoint x="790" y="420" as="targetPoint" />
            <Array as="points">
              <mxPoint x="770" y="420" />
            </Array>
          </mxGeometry>
        </mxCell>
        <mxCell id="Y8PTiHZSludacNB3pOwr-98" value="1" style="resizable=0;html=1;align=right;verticalAlign=bottom;strokeWidth=1;fillColor=none;" connectable="0" vertex="1" parent="Y8PTiHZSludacNB3pOwr-97">
          <mxGeometry x="1" relative="1" as="geometry" />
        </mxCell>
        <mxCell id="Y8PTiHZSludacNB3pOwr-99" value="" style="endArrow=none;html=1;rounded=0;startSize=5;endSize=5;jumpSize=5;" edge="1" parent="1">
          <mxGeometry width="50" height="50" relative="1" as="geometry">
            <mxPoint x="790" y="680" as="sourcePoint" />
            <mxPoint x="790" y="420" as="targetPoint" />
            <Array as="points">
              <mxPoint x="790" y="460" />
            </Array>
          </mxGeometry>
        </mxCell>
        <mxCell id="Y8PTiHZSludacNB3pOwr-100" value="" style="endArrow=classic;html=1;rounded=0;startSize=5;endSize=5;jumpSize=5;entryX=1.004;entryY=-0.033;entryDx=0;entryDy=0;entryPerimeter=0;" edge="1" parent="1" target="Y8PTiHZSludacNB3pOwr-59">
          <mxGeometry width="50" height="50" relative="1" as="geometry">
            <mxPoint x="790" y="680" as="sourcePoint" />
            <mxPoint x="760" y="650" as="targetPoint" />
          </mxGeometry>
        </mxCell>
        <mxCell id="Y8PTiHZSludacNB3pOwr-101" value="" style="edgeStyle=entityRelationEdgeStyle;endArrow=ERzeroToMany;startArrow=ERone;endFill=1;startFill=0;entryX=0;entryY=0.5;entryDx=0;entryDy=0;exitX=1;exitY=0.5;exitDx=0;exitDy=0;" edge="1" parent="1" source="Y8PTiHZSludacNB3pOwr-44" target="C-vyLk0tnHw3VtMMgP7b-14">
          <mxGeometry width="100" height="100" relative="1" as="geometry">
            <mxPoint x="365" y="515" as="sourcePoint" />
            <mxPoint x="485" y="460" as="targetPoint" />
          </mxGeometry>
        </mxCell>
        <mxCell id="Y8PTiHZSludacNB3pOwr-102" value="" style="edgeStyle=entityRelationEdgeStyle;endArrow=ERzeroToMany;startArrow=ERone;endFill=1;startFill=0;exitX=1.012;exitY=0.75;exitDx=0;exitDy=0;exitPerimeter=0;" edge="1" parent="1" source="Y8PTiHZSludacNB3pOwr-44">
          <mxGeometry width="100" height="100" relative="1" as="geometry">
            <mxPoint x="365" y="505" as="sourcePoint" />
            <mxPoint x="485" y="640" as="targetPoint" />
          </mxGeometry>
        </mxCell>
        <mxCell id="Y8PTiHZSludacNB3pOwr-103" value="" style="edgeStyle=entityRelationEdgeStyle;endArrow=ERzeroToMany;startArrow=ERone;endFill=1;startFill=0;entryX=-0.02;entryY=0.267;entryDx=0;entryDy=0;entryPerimeter=0;" edge="1" parent="1" target="Y8PTiHZSludacNB3pOwr-65">
          <mxGeometry width="100" height="100" relative="1" as="geometry">
            <mxPoint x="410" y="85" as="sourcePoint" />
            <mxPoint x="520" y="175" as="targetPoint" />
          </mxGeometry>
        </mxCell>
        <mxCell id="Y8PTiHZSludacNB3pOwr-108" value="" style="edgeStyle=entityRelationEdgeStyle;endArrow=ERzeroToMany;startArrow=ERone;endFill=1;startFill=0;" edge="1" parent="1">
          <mxGeometry width="100" height="100" relative="1" as="geometry">
            <mxPoint x="740" y="730" as="sourcePoint" />
            <mxPoint x="560" y="920" as="targetPoint" />
          </mxGeometry>
        </mxCell>
      </root>
    </mxGraphModel>
  </diagram>
</mxfile>
